<svg xmlns="http://www.w3.org/2000/svg" width="32" height="32" viewBox="0 0 32 32">
  <title>Resume Icon</title>
  <!-- Document background -->
  <rect x="6" y="2" width="20" height="28" rx="2" ry="2" fill="#ffffff" stroke="#10b981" stroke-width="1"/>
  
  <!-- Document header section -->
  <rect x="8" y="4" width="16" height="6" rx="1" ry="1" fill="#10b981" opacity="0.1"/>
  
  <!-- Profile/name line -->
  <rect x="9" y="5.5" width="8" height="1" rx="0.5" ry="0.5" fill="#10b981"/>
  <rect x="9" y="7.5" width="6" height="0.8" rx="0.4" ry="0.4" fill="#10b981" opacity="0.7"/>
  
  <!-- Content lines -->
  <rect x="8" y="12" width="12" height="0.8" rx="0.4" ry="0.4" fill="#666666"/>
  <rect x="8" y="14" width="14" height="0.8" rx="0.4" ry="0.4" fill="#666666"/>
  <rect x="8" y="16" width="10" height="0.8" rx="0.4" ry="0.4" fill="#666666"/>
  
  <!-- Section separator -->
  <rect x="8" y="18.5" width="16" height="0.5" rx="0.25" ry="0.25" fill="#10b981" opacity="0.3"/>
  
  <!-- More content lines -->
  <rect x="8" y="20.5" width="13" height="0.8" rx="0.4" ry="0.4" fill="#666666"/>
  <rect x="8" y="22.5" width="15" height="0.8" rx="0.4" ry="0.4" fill="#666666"/>
  <rect x="8" y="24.5" width="11" height="0.8" rx="0.4" ry="0.4" fill="#666666"/>
  
  <!-- Skills/bullet points -->
  <circle cx="9" cy="27" r="0.8" fill="#10b981"/>
  <rect x="11" y="26.6" width="8" height="0.8" rx="0.4" ry="0.4" fill="#666666"/>
  
  <circle cx="9" cy="28.5" r="0.8" fill="#10b981"/>
  <rect x="11" y="28.1" width="6" height="0.8" rx="0.4" ry="0.4" fill="#666666"/>
</svg>